<?xml version="1.0" encoding="iso-8859-1"?>
<!-- Generator: Adobe Illustrator 19.0.0, SVG Export Plug-In . SVG Version: 6.00 Build 0)  -->
<svg version="1.1" id="Capa_1" xmlns="http://www.w3.org/2000/svg" xmlns:xlink="http://www.w3.org/1999/xlink" x="0px" y="0px"
	 viewBox="0 0 468.306 468.306" style="enable-background:new 0 0 468.306 468.306;" xml:space="preserve">
<path style="fill:#27A2DB;" d="M468.3,234.146c0,1.873,0,3.745-0.063,5.62c-1.811,77.549-41.335,145.794-100.964,187.003
	c-37.776,26.163-83.668,41.523-133.12,41.523c-129.311,0-234.146-104.835-234.146-234.146c0-27.349,4.683-53.573,13.3-77.924
	C35.098,94.407,82.177,44.456,142.118,18.794C170.341,6.681,201.498,0,234.153,0c47.641,0,91.848,14.236,128.812,38.587
	c24.351,16.047,45.518,36.59,62.377,60.317C452.378,137.116,468.3,183.758,468.3,234.146z"/>
<path style="fill:#2D93BA;" d="M468.299,234.148c0-57.88-21.095-112.897-59.515-155.942l0.149-0.155l-6.007-6.244
	C358.388,25.5,298.45,0.002,234.153,0.002c-16.074,0-31.876,1.593-47.233,4.708c-46.071,9.341-88.136,32.367-121.537,67.097
	l-0.001,0.001c0,0-0.003,0.003-0.005,0.004l-0.004,0.004l-5.993,6.234l0.148,0.154c-38.422,43.046-59.52,98.067-59.52,155.944
	c0,59.81,22.57,114.429,59.603,155.857l-0.231,0.24l6.004,6.244c44.434,46.195,104.191,71.67,168.306,71.793
	c0.15,0.001,0.297,0.023,0.447,0.023c0.139,0,0.276-0.021,0.415-0.022c64.14-0.104,123.924-25.583,168.376-71.794l6.007-6.244
	l-0.234-0.243C445.731,348.574,468.299,293.957,468.299,234.148z M85.477,77.256c1.133-1.076,2.296-2.108,3.448-3.157
	c1.495-1.362,2.988-2.726,4.515-4.043c1.2-1.033,2.427-2.027,3.646-3.033c1.53-1.261,3.06-2.52,4.619-3.735
	c1.254-0.978,2.529-1.92,3.801-2.868c1.567-1.167,3.139-2.328,4.734-3.449c1.308-0.919,2.633-1.81,3.958-2.698
	c1.602-1.073,3.211-2.137,4.839-3.166c1.356-0.856,2.725-1.689,4.098-2.514c1.641-0.986,3.291-1.955,4.956-2.896
	c1.395-0.787,2.798-1.557,4.209-2.312c1.686-0.903,3.383-1.782,5.091-2.64c1.426-0.714,2.857-1.416,4.298-2.098
	c1.728-0.818,3.469-1.606,5.217-2.377c1.461-0.645,2.924-1.281,4.399-1.892c1.763-0.73,3.54-1.425,5.322-2.106
	c1.491-0.572,2.982-1.142,4.486-1.68c1.808-0.645,3.631-1.249,5.457-1.847c1.506-0.492,3.009-0.991,4.527-1.45
	c1.859-0.561,3.736-1.074,5.612-1.587c1.515-0.413,3.025-0.84,4.55-1.22c1.317-0.328,2.65-0.607,3.974-0.912
	c-19.623,20.22-35.796,52.416-46.586,92.39c-19.606-9.67-37.811-22.343-54.004-37.885C84.925,77.812,85.194,77.526,85.477,77.256z
	 M291.636,25.719c1.857,0.509,3.714,1.016,5.554,1.573c1.536,0.463,3.059,0.967,4.583,1.467c1.807,0.592,3.612,1.189,5.402,1.828
	c1.52,0.542,3.027,1.118,4.534,1.696c1.764,0.676,3.524,1.363,5.269,2.086c1.494,0.619,2.977,1.263,4.456,1.917
	c1.727,0.761,3.447,1.539,5.153,2.348c1.462,0.692,2.915,1.404,4.361,2.128c1.686,0.847,3.361,1.715,5.026,2.606
	c1.43,0.765,2.853,1.545,4.267,2.344c1.647,0.931,3.28,1.889,4.903,2.866c1.388,0.833,2.771,1.674,4.141,2.54
	c1.611,1.019,3.204,2.07,4.79,3.132c1.344,0.901,2.687,1.804,4.013,2.737c1.576,1.108,3.128,2.256,4.677,3.408
	c1.287,0.959,2.578,1.911,3.846,2.901c1.554,1.212,3.08,2.467,4.605,3.724c1.22,1.004,2.445,1.999,3.645,3.033
	c1.533,1.321,3.032,2.69,4.533,4.057c1.146,1.044,2.303,2.07,3.43,3.141c0.285,0.27,0.557,0.558,0.841,0.831
	c-16.202,15.55-34.418,28.229-54.035,37.9C318.838,75.993,302.66,43.79,283.03,23.568c1.335,0.305,2.676,0.586,4.003,0.918
	C288.576,24.87,290.104,25.301,291.636,25.719z M344.155,225.5c-0.537-32.861-4.104-63.794-10.159-91.607
	c22.634-10.674,43.575-25.057,62.117-42.859c33.08,37.449,52.002,84.598,53.968,134.466H344.155z M243.141,19.118
	c29.154,6.998,54.803,47.482,69.635,104.299c-21.977,8.556-45.418,13.482-69.635,14.46V19.118z M225.13,19.118v118.757
	c-24.217-0.981-47.656-5.91-69.63-14.469C170.332,66.594,195.978,26.116,225.13,19.118z M225.13,155.875V225.5h-83.003
	c0.532-29.925,3.788-58.516,9.213-84.384C174.679,149.908,199.509,154.918,225.13,155.875z M225.13,243.511v68.908
	c-25.623,0.959-50.455,5.969-73.794,14.76c-5.381-25.663-8.631-54.004-9.201-83.669H225.13z M225.13,330.421v118.781
	c-29.156-6.999-54.805-47.486-69.636-104.311C177.469,336.331,200.91,331.401,225.13,330.421z M185.102,444.602
	c-38.364-8.941-72.819-28.109-100.347-54.49c16.162-15.495,34.326-28.135,53.886-37.783
	C149.407,392.224,165.534,424.369,185.102,444.602z M283.161,444.611c19.574-20.233,35.707-52.386,46.474-92.294
	c19.571,9.649,37.746,22.293,53.917,37.795C356.014,416.502,321.543,435.675,283.161,444.611z M243.141,449.201V330.419
	c24.22,0.976,47.664,5.903,69.641,14.46C297.95,401.709,272.299,442.202,243.141,449.201z M243.141,312.42v-68.908h82.998
	c-0.57,29.66-3.819,57.997-9.199,83.657C293.599,318.379,268.765,313.372,243.141,312.42z M243.141,225.5v-69.624
	c25.621-0.953,50.454-5.96,73.794-14.748c5.424,25.865,8.679,54.453,9.212,84.372H243.141z M134.28,133.88
	c-6.056,27.816-9.625,58.755-10.162,91.62H18.224c1.967-49.867,20.89-97.022,53.97-134.466
	C90.728,108.829,111.658,123.206,134.28,133.88z M124.126,243.511c0.575,32.6,4.138,63.289,10.149,90.906
	c-22.579,10.653-43.475,24.994-61.98,42.744c-31.805-35.954-51.848-82.516-54.04-133.651H124.126z M334.001,334.403
	c6.009-27.612,9.571-58.296,10.146-90.892h105.903c-2.192,51.133-22.235,97.696-54.039,133.649
	C377.497,359.405,356.592,345.058,334.001,334.403z"/>
<path style="fill:#FCD462;" d="M210.676,254.814c-9.241,11.55-19.98,23.913-19.606,38.712c0.25,8.803,4.433,17.982,0.687,25.974
	c-1.561,3.372-4.371,5.931-7.056,8.43c-12.488,11.425-24.976,22.852-37.463,34.216c-13.924-16.422-10.615-42.334-23.664-59.505
	c-5.433-7.18-13.237-12.113-19.606-18.419c-24.788-24.538-25.226-65.623-48.016-91.973c-11.926-13.861-29.784-23.477-42.646-36.027
	C35.098,94.407,82.177,44.456,142.118,18.794c14.486,15.797,19.606,50.826,23.04,66.872c1.186,5.494,2.185,11.552-0.624,16.485
	c-1.561,2.747-4.121,4.808-6.744,6.617c-12.987,8.867-28.722,13.736-44.519,13.611c-7.43-0.061-16.172-0.686-20.917,4.997
	c-5.807,6.992-0.437,18.294,7.555,22.477c7.992,4.245,17.545,3.995,26.474,5.495c8.929,1.497,18.67,6.055,20.98,14.797
	c1.373,5.12,0.062,11.239,3.372,15.36c2.31,2.934,6.244,3.995,9.928,4.62c11.801,1.873,24.039,1.25,35.715,3.747
	c11.739,2.559,23.664,9.303,27.535,20.604C228.784,228.465,219.98,243.262,210.676,254.814z"/>
<path style="fill:#44C4A1;" d="M468.237,239.767c-1.811,77.549-41.335,145.794-100.964,187.003
	c-7.805-3.122-15.048-8.053-21.604-13.361c-12.55-10.177-24.351-23.352-26.037-39.462c-1.623-15.422,6.181-29.97,11.551-44.456
	c5.432-14.486,7.992-32.468-2.311-44.082c-6.743-7.617-17.295-10.302-26.724-14.111c-15.423-6.119-30.97-19.543-28.909-35.965
	c0.874-7.055,4.933-13.361,9.615-18.669c12.862-14.549,34.279-23.976,51.887-15.86c5.12,2.373,9.553,6.058,14.548,8.867
	C385.131,229.651,440.951,205.924,468.237,239.767z"/>
<path style="fill:#E1E6E9;" d="M425.342,98.904c-2.872,2.059-5.307,4.433-6.743,7.492c-1.499,3.184-1.748,6.867-2.81,10.177
	c-2.623,8.18-10.428,14.049-18.857,15.672c-8.429,1.561-17.296-0.686-24.726-4.933c-4.683-2.684-9.053-6.18-14.361-7.242
	c-8.679-1.686-16.983,3.559-25.35,6.556c-6.119,2.247-12.612,3.247-19.106,3.059c-4.121-0.125-8.429-0.873-11.489-3.497
	c-5.432-4.683-4.933-13.236-3.122-20.168c4.495-17.046,14.736-32.53,28.41-43.645c6.556-5.308,14.486-8.616,20.792-13.799
	c5.994-4.87,2.747-10.989,14.236-10.053c0.25,0,0.5,0.063,0.749,0.063C387.316,54.634,408.483,75.177,425.342,98.904z"/>
<g>
</g>
<g>
</g>
<g>
</g>
<g>
</g>
<g>
</g>
<g>
</g>
<g>
</g>
<g>
</g>
<g>
</g>
<g>
</g>
<g>
</g>
<g>
</g>
<g>
</g>
<g>
</g>
<g>
</g>
</svg>
