<?xml version="1.0" encoding="iso-8859-1"?>
<!-- Generator: Adobe Illustrator 19.0.0, SVG Export Plug-In . SVG Version: 6.00 Build 0)  -->
<svg version="1.1" id="Capa_1" xmlns="http://www.w3.org/2000/svg" xmlns:xlink="http://www.w3.org/1999/xlink" x="0px" y="0px"
	 viewBox="0 0 468.293 468.293" style="enable-background:new 0 0 468.293 468.293;" xml:space="preserve">
<path style="fill:#64798A;" d="M457.726,468.293H262.443L93.877,350.144c-12.325-8.649-22.215-18.625-27.898-29.696
	c-26.79-52.069,50.924-81.937,145.983-107.251c98.601-26.236-21.477-17.933-64.873-51.261h132.698
	c50.186,33.328,168.64,25.025,75.427,51.261c-89.892,25.314-161.555,55.182-124.137,107.251
	c7.97,11.071,19.853,21.046,33.949,29.696L457.726,468.293z"/>
<path style="fill:#27A2DB;" d="M206.512,59.043c0,32.608-59.043,103.324-59.043,103.324S88.427,91.651,88.427,59.043
	S114.861,0,147.469,0S206.512,26.434,206.512,59.043z"/>
<circle style="fill:#E1E6E9;" cx="147.481" cy="59.042" r="36.901"/>
<path style="fill:#E56353;" d="M393.284,331.347c0,32.608-59.043,103.324-59.043,103.324s-59.042-70.716-59.042-103.324
	s26.434-59.043,59.042-59.043S393.284,298.738,393.284,331.347z"/>
<circle style="fill:#E1E6E9;" cx="334.236" cy="331.364" r="36.901"/>
<path style="fill:#44C4A1;" d="M117.917,221.183c0,29.644-53.675,93.931-53.675,93.931s-53.675-64.287-53.675-93.931
	s24.031-53.675,53.675-53.675S117.917,191.539,117.917,221.183z"/>
<circle style="fill:#E1E6E9;" cx="64.243" cy="221.184" r="33.548"/>
<g>
</g>
<g>
</g>
<g>
</g>
<g>
</g>
<g>
</g>
<g>
</g>
<g>
</g>
<g>
</g>
<g>
</g>
<g>
</g>
<g>
</g>
<g>
</g>
<g>
</g>
<g>
</g>
<g>
</g>
</svg>
